# xmcd
#
# Track frame offsets:
#	150
#	17554
#	27779
#	39441
#	56575
#	71471
#	80905
#	93529
#	108629
#	122894
#	136701
#	148280
#	161634
#	180472
#	195448
#	209527
#	223442
#	236240
#	251103
#	265549
#	276333
#	292354
#	307270
#	322405
#	337916
#
# Disc length: 4670 seconds
# Revision: 0
# Processed by: cddbd v1.5.1PL0 Copyright (c) Steve Scherf et al.
# Submitted via: cdrLabel 7.1
#
DISCID=96123c19
DTITLE=George Strait - 50 Number 1 Hits CD 2
DYEAR=1972
DGENRE=Soul
TTITLE0=Awful Beautiful Life
TTITLE1=Heartland
TTITLE2=Easy Come, Easy Go
TTITLE3=I'd Like To Have This One Back
TTITLE4=The Man In Love With You
TTITLE5=The Big One
TTITLE6=You Can't Make A Heart Love Somebody
TTITLE7=Lead On
TTITLE8=Check Yes Or No
TTITLE9=I Know She Still Loves Me
TTITLE10=Blue Clear Sky
TTITLE11=Carried Away
TTITLE12=I Can Still Make Cheyenne
TTITLE13=One Night At A Time
TTITLE14=Carrying Your Love With Me
TTITLE15=Today My World Slipped Away
TTITLE16=Round About Way
TTITLE17=I Just Want To Dance With You
TTITLE18=True
TTITLE19=We Really Shouldn't Be Doing This
TTITLE20=Write This Down
TTITLE21=The Best Day
TTITLE22=Go
TTITLE23=Living and Living Well
TTITLE24=She'll Leave You With A Smile
EXTD=
EXTT0=
EXTT1=
EXTT2=
EXTT3=
EXTT4=
EXTT5=
EXTT6=
EXTT7=
EXTT8=
EXTT9=
EXTT10=
EXTT11=
EXTT12=
EXTT13=
EXTT14=
EXTT15=
EXTT16=
EXTT17=
EXTT18=
EXTT19=
EXTT20=
EXTT21=
EXTT22=
EXTT23=
EXTT24=
PLAYORDER=
